<svg width="200" height="200" viewBox="0 0 200 200" xmlns="http://www.w3.org/2000/svg"><title>ONplace token</title><g fill="none" fill-rule="evenodd"><path d="M200 100c0 55.229-44.771 100-100 100S0 155.229 0 100 44.771 0 100 0s100 44.771 100 100" fill="#1E9DF2" fill-rule="nonzero"/><circle stroke="#FFF" cx="100.5" cy="100.5" r="90.5"/><g fill="#FFF" fill-rule="nonzero"><path d="M82.495 54.913l46 79.674-12.99 7.5-46-79.674z"/><path d="M141.473 111.081c0 14.486-3.87 26.427-11.61 35.824-7.74 9.397-17.817 14.095-30.23 14.095-12.366 0-22.396-4.712-30.091-14.136C61.847 137.441 58 125.514 58 111.081V89.92c0-14.378 3.836-26.292 11.508-35.743C77.179 44.726 87.176 40 99.496 40c12.412 0 22.512 4.725 30.298 14.176 7.786 9.45 11.68 21.365 11.68 35.743v21.162zm-19.992-21.324c0-9.154-1.947-16.666-5.84-22.536-3.893-5.87-9.275-8.804-16.145-8.804-6.778 0-12.057 2.934-15.836 8.804-3.778 5.87-5.668 13.382-5.668 22.536v21.324c0 9.316 1.901 16.91 5.703 22.779 3.801 5.87 9.114 8.804 15.939 8.804 6.87 0 12.229-2.935 16.076-8.804 3.847-5.87 5.77-13.463 5.77-22.779V89.757z"/></g></g></svg>