<svg xmlns="http://www.w3.org/2000/svg" width="512" height="512" viewBox="0 0 512 512"><path fill="#FAFAFA" d="M501.216 103.899c-18.044 8.003-37.437 13.412-57.788 15.843 20.771-12.453 36.729-32.17 44.239-55.667a201.427 201.427 0 0 1-63.896 24.417c-18.354-19.555-44.505-31.773-73.442-31.773-55.565 0-100.619 45.049-100.619 100.615 0 7.886.89 15.565 2.605 22.93-83.623-4.197-157.763-44.254-207.388-105.129-8.662 14.86-13.624 32.144-13.624 50.584 0 34.909 17.763 65.706 44.762 83.75a100.22 100.22 0 0 1-45.574-12.585c-.009.42-.009.841-.009 1.266 0 48.75 34.684 89.415 80.711 98.661a100.768 100.768 0 0 1-26.508 3.529 100.69 100.69 0 0 1-18.931-1.805c12.804 39.972 49.963 69.064 93.993 69.874-34.436 26.987-77.82 43.073-124.962 43.073-8.122 0-16.131-.479-24.002-1.408 44.528 28.55 97.417 45.209 154.238 45.209 185.072 0 286.278-153.319 286.278-286.282 0-4.362-.098-8.701-.292-13.018 19.662-14.185 36.72-31.906 50.209-52.084z"/></svg>