<?xml version="1.0" encoding="UTF-8"?>
<svg width="200px" height="200px" viewBox="0 0 200 200" version="1.1" xmlns="http://www.w3.org/2000/svg" xmlns:xlink="http://www.w3.org/1999/xlink">
    <!-- Generator: Sketch 48.2 (47327) - http://www.bohemiancoding.com/sketch -->
    <title>ONplace token</title>
    <desc>Created with Sketch.</desc>
    <defs></defs>
    <g id="Page-1" stroke="none" stroke-width="1" fill="none" fill-rule="evenodd">
        <g id="ONplace-token">
            <path d="M200,100 C200,155.229 155.229,200 100,200 C44.771,200 0,155.229 0,100 C0,44.771 44.771,0 100,0 C155.229,0 200,44.771 200,100" id="Fill-416" fill="#1E9DF2" fill-rule="nonzero"></path>
            <circle id="Oval-2" stroke="#FFFFFF" cx="100.5" cy="100.5" r="90.5"></circle>
            <g id="Logo-SVG" transform="translate(58.000000, 40.000000)" fill="#FFFFFF" fill-rule="nonzero">
                <rect id="Rectangle" transform="translate(41.000000, 58.500000) rotate(60.000000) translate(-41.000000, -58.500000) " x="-5" y="51" width="92" height="15"></rect>
                <path d="M83.4732801,71.0814421 C83.4732801,85.5670509 79.6030896,97.5080751 71.8625932,106.904873 C64.1220969,116.301672 54.0458618,121 41.6335865,121 C29.2671128,121 19.2366791,116.288209 11.5419844,106.864486 C3.84728967,97.4407628 0,85.5132011 0,71.0814421 L0,49.9185579 C0,35.5406491 3.8358394,23.6265492 11.5076332,14.1759012 C19.1794271,4.72525316 29.17551,0 41.496182,0 C53.9084571,0 64.0075929,4.72525316 71.7938909,14.1759012 C79.5801894,23.6265492 83.4732801,35.5406491 83.4732801,49.9185579 L83.4732801,71.0814421 Z M63.480914,49.7570096 C63.480914,40.6025354 61.534369,33.0905945 57.6412194,27.2209613 C53.7480704,21.351328 48.366445,18.4165554 41.496182,18.4165554 C34.7175223,18.4165554 29.4389493,21.351328 25.6603046,27.2209613 C21.8816598,33.0905945 19.9923658,40.6025354 19.9923658,49.7570096 L19.9923658,71.0814421 C19.9923658,80.3974651 21.8931101,87.99018 25.6946557,93.8598131 C29.4962013,99.7294463 34.8091251,102.664219 41.6335865,102.664219 C48.5038498,102.664219 53.8625744,99.7294463 57.7099218,93.8598131 C61.5572692,87.99018 63.480914,80.3974651 63.480914,71.0814421 L63.480914,49.7570096 Z" id="O"></path>
            </g>
        </g>
    </g>
</svg>